<?xml version="1.0" standalone="no"?><!DOCTYPE svg PUBLIC "-//W3C//DTD SVG 1.1//EN" "http://www.w3.org/Graphics/SVG/1.1/DTD/svg11.dtd"><svg t="1556247230123" class="icon" style="" viewBox="0 0 1024 1024" version="1.1" xmlns="http://www.w3.org/2000/svg" p-id="2158" xmlns:xlink="http://www.w3.org/1999/xlink" width="32" height="32"><defs><style type="text/css"></style></defs><path d="M512 141.21142578C307.2011106 141.21142578 141.21142578 307.2011106 141.21142578 512s165.98968482 370.78857422 370.78857422 370.78857422 370.78857422-165.98968482 370.78857422-370.78857422S716.7988894 141.21142578 512 141.21142578z m0 576.79252648A41.21932959 41.21932959 0 1 1 511.96910071 635.59619164 41.21932959 41.21932959 0 0 1 512 718.00395226z m39.24179101-164.97001695h0.09269714a43.81484962 43.81484962 0 0 1-38.96369958 40.47775316c1.4831543 0.18539429 2.81181359 0.83427429 4.32586646 0.83427429h-8.55903577c1.4831543 0 2.7809143-0.71067787 4.23316931-0.80337572a42.79518104 42.79518104 0 0 1-38.50021385-40.47775245l-9.45510865-205.78765868a39.33448815 39.33448815 0 0 1 39.55078173-41.31202675h19.03381299a38.37661743 38.37661743 0 0 1 39.24179101 41.28112746l-10.96916222 205.78765869z" fill="#f4ea2a" p-id="2159"></path></svg>